<svg width="153" height="50" viewBox="0 0 153 50" fill="none" xmlns="http://www.w3.org/2000/svg">
<path fill-rule="evenodd" clip-rule="evenodd" d="M10.8069 44.8179V32.5092H10.8105L10.8067 21.8889L22.0521 21.8845L22.0556 31.377C27.8687 29.0272 31.9761 23.2758 31.9761 16.5534C31.9761 7.74127 24.9182 0.597656 16.2118 0.597656C7.50539 0.597656 0.44751 7.74127 0.44751 16.5534V31.1416V32.5092V44.8179C0.44751 47.3357 2.46407 49.3767 4.9516 49.3767H6.30283C8.79035 49.3767 10.8069 47.3357 10.8069 44.8179ZM19.4219 15.6793C19.2809 15.7752 19.1099 15.8323 18.9211 15.8324L13.9422 15.8344C13.7535 15.8344 13.5825 15.7774 13.4414 15.6816L11.4613 19.6981C11.1624 20.3044 11.5982 21.0171 12.2677 21.0169L20.5995 21.0137C21.269 21.0134 21.7043 20.3003 21.4049 19.6942L19.4219 15.6793ZM15.3763 10.3989C15.6821 9.64558 16.7361 9.64518 17.0424 10.3983L17.9479 12.624C18.1919 13.224 17.7562 13.8826 17.1152 13.8829L15.3061 13.8836C14.665 13.8838 14.2289 13.2255 14.4725 12.6254L15.3763 10.3989Z" fill="#456fff"/>
</svg>
